<?xml version='1.0' encoding='utf-8'?>
<svg width="88.5mm" height="76.0mm" viewBox="-28.476504 -53.043514 88.5 76.0" version="1.1" xmlns="http://www.w3.org/2000/svg">
  <g transform="scale(1,-1)" stroke-linecap="round">
    <g fill="none" stroke="rgb(0,0,0)" stroke-width="0.5" id="visible">
      <line x1="-16.226504" y1="-8.706486" x2="-16.226504" y2="48.793514" />
      <path d="M -16.226504,-8.706486 A 2.0,2.0 90.0 0,1 -14.226504,-10.706486" />
      <line x1="-24.226504" y1="48.793514" x2="-16.226504" y2="48.793514" />
      <line x1="-14.226504" y1="-10.706486" x2="55.773496" y2="-10.706486" />
      <line x1="-24.226504" y1="-18.706486" x2="-24.226504" y2="48.793514" />
      <line x1="55.773496" y1="-18.706486" x2="55.773496" y2="-10.706486" />
      <line x1="-24.226504" y1="-18.706486" x2="55.773496" y2="-18.706486" />
    </g>
    <g fill="none" stroke="rgb(128,128,128)" stroke-width="0.25" id="hidden" stroke-dasharray="1.5875 0.79375">
      <line x1="-16.226504" y1="-8.706486" x2="-16.226504" y2="48.793514" />
      <path d="M -16.226504,-8.706486 A 2.0,2.0 90.0 0,1 -14.226504,-10.706486" />
      <line x1="-24.226504" y1="48.793514" x2="-16.226504" y2="48.793514" />
      <line x1="-14.226504" y1="-10.706486" x2="55.773496" y2="-10.706486" />
      <path d="M 4.773496,-10.706486 L 4.648136,-10.706486 L 4.278341,-10.706486 L 3.682654,-10.706486 L 2.890945,-10.706486 L 1.942915,-10.706486 L 0.886101,-10.706486 L -0.226504,-10.706486 L -1.339108,-10.706486 L -2.395922,-10.706486 L -3.343953,-10.706486 L -4.135661,-10.706486 L -4.731348,-10.706486 L -5.101143,-10.706486 L -5.226504,-10.706486" />
      <path d="M -5.226504,-10.706486 L -5.101143,-10.706486 L -4.731348,-10.706486 L -4.135661,-10.706486 L -3.343953,-10.706486 L -2.395922,-10.706486 L -1.339108,-10.706486 L -0.226504,-10.706486 L 0.886101,-10.706486 L 1.942915,-10.706486 L 2.890945,-10.706486 L 3.682654,-10.706486 L 4.278341,-10.706486 L 4.648136,-10.706486 L 4.773496,-10.706486" />
      <path d="M 40.773496,-10.706486 L 40.648136,-10.706486 L 40.278341,-10.706486 L 39.682654,-10.706486 L 38.890945,-10.706486 L 37.942915,-10.706486 L 36.886101,-10.706486 L 35.773496,-10.706486 L 34.660892,-10.706486 L 33.604078,-10.706486 L 32.656047,-10.706486 L 31.864339,-10.706486 L 31.268652,-10.706486 L 30.898857,-10.706486 L 30.773496,-10.706486" />
      <path d="M 30.773496,-10.706486 L 30.898857,-10.706486 L 31.268652,-10.706486 L 31.864339,-10.706486 L 32.656047,-10.706486 L 33.604078,-10.706486 L 34.660892,-10.706486 L 35.773496,-10.706486 L 36.886101,-10.706486 L 37.942915,-10.706486 L 38.890945,-10.706486 L 39.682654,-10.706486 L 40.278341,-10.706486 L 40.648136,-10.706486 L 40.773496,-10.706486" />
      <line x1="-24.226504" y1="48.793514" x2="-24.226504" y2="-18.706486" />
      <line x1="55.773496" y1="-18.706486" x2="55.773496" y2="-10.706486" />
      <line x1="-24.226504" y1="-18.706486" x2="55.773496" y2="-18.706486" />
      <line x1="4.773496" y1="-17.206486" x2="4.773496" y2="-10.706486" />
      <path d="M 4.773496,-17.206486 L 4.648136,-17.206486 L 4.278341,-17.206486 L 3.682654,-17.206486 L 2.890945,-17.206486 L 1.942915,-17.206486 L 0.886101,-17.206486 L -0.226504,-17.206486 L -1.339108,-17.206486 L -2.395922,-17.206486 L -3.343953,-17.206486 L -4.135661,-17.206486 L -4.731348,-17.206486 L -5.101143,-17.206486 L -5.226504,-17.206486" />
      <path d="M -5.226504,-17.206486 L -5.101143,-17.206486 L -4.731348,-17.206486 L -4.135661,-17.206486 L -3.343953,-17.206486 L -2.395922,-17.206486 L -1.339108,-17.206486 L -0.226504,-17.206486 L 0.886101,-17.206486 L 1.942915,-17.206486 L 2.890945,-17.206486 L 3.682654,-17.206486 L 4.278341,-17.206486 L 4.648136,-17.206486 L 4.773496,-17.206486" />
      <line x1="40.773496" y1="-17.206486" x2="40.773496" y2="-10.706486" />
      <path d="M 40.773496,-17.206486 L 40.648136,-17.206486 L 40.278341,-17.206486 L 39.682654,-17.206486 L 38.890945,-17.206486 L 37.942915,-17.206486 L 36.886101,-17.206486 L 35.773496,-17.206486 L 34.660892,-17.206486 L 33.604078,-17.206486 L 32.656047,-17.206486 L 31.864339,-17.206486 L 31.268652,-17.206486 L 30.898857,-17.206486 L 30.773496,-17.206486" />
      <path d="M 30.773496,-17.206486 L 30.898857,-17.206486 L 31.268652,-17.206486 L 31.864339,-17.206486 L 32.656047,-17.206486 L 33.604078,-17.206486 L 34.660892,-17.206486 L 35.773496,-17.206486 L 36.886101,-17.206486 L 37.942915,-17.206486 L 38.890945,-17.206486 L 39.682654,-17.206486 L 40.278341,-17.206486 L 40.648136,-17.206486 L 40.773496,-17.206486" />
      <line x1="-5.226504" y1="-17.206486" x2="-5.226504" y2="-10.706486" />
      <line x1="30.773496" y1="-17.206486" x2="30.773496" y2="-10.706486" />
    </g>
  </g>
</svg>