<?xml version='1.0' encoding='utf-8'?>
<svg width="93.352814mm" height="112.603314mm" viewBox="-35.522861 -62.145132 93.352814 112.603314" version="1.1" xmlns="http://www.w3.org/2000/svg">
  <g transform="scale(1,-1)" stroke-linecap="round">
    <g fill="none" stroke="rgb(0,0,0)" stroke-width="0.5" id="visible">
      <line x1="-25.616006" y1="-8.649339" x2="-25.616006" y2="38.299214" />
      <path d="M -25.616006,-8.649339 A 2.0,1.1547005383792517 119.99999999999999 0,1 -24.201793,-11.098829" />
      <line x1="-31.272861" y1="41.5652" x2="-25.616006" y2="38.299214" />
      <line x1="-24.201793" y1="-11.098829" x2="25.295682" y2="-39.67621" />
      <line x1="-31.272861" y1="-13.548319" x2="-31.272861" y2="41.5652" />
      <line x1="25.295682" y1="-46.208182" x2="25.295682" y2="-39.67621" />
      <line x1="-31.272861" y1="-13.548319" x2="25.295682" y2="-46.208182" />
      <line x1="-25.616006" y1="38.299214" x2="2.668265" y2="54.629146" />
      <line x1="2.668265" y1="7.680592" x2="2.668265" y2="54.629146" />
      <path d="M 2.668265,7.680592 A 2.0,1.1547005383792517 119.99999999999999 0,1 4.082478,5.231102" />
      <line x1="-31.272861" y1="41.5652" x2="-2.988589" y2="57.895132" />
      <line x1="-2.988589" y1="57.895132" x2="2.668265" y2="54.629146" />
      <line x1="4.082478" y1="5.231102" x2="53.579953" y2="-23.346278" />
      <line x1="25.295682" y1="-39.67621" x2="53.579953" y2="-23.346278" />
      <path d="M 3.375372,-10.690581 A 5.0,2.886751345948129 0.0 0,1 4.839838,-8.649339" />
      <path d="M 4.839838,-8.649339 A 5.0,2.886751345948129 0.0 0,1 -5.160162,-8.649339" />
      <path d="M -5.160162,-8.649339 A 5.0,2.886751345948129 0.0 0,1 3.375372,-10.690581" />
      <path d="M 28.831216,-25.387519 A 5.0,2.886751345948129 0.0 0,1 30.295682,-23.346278" />
      <path d="M 30.295682,-23.346278 A 5.0,2.886751345948129 0.0 0,1 20.295682,-23.346278" />
      <path d="M 20.295682,-23.346278 A 5.0,2.886751345948129 0.0 0,1 28.831216,-25.387519" />
      <line x1="53.579953" y1="-29.878251" x2="53.579953" y2="-23.346278" />
      <line x1="25.295682" y1="-46.208182" x2="53.579953" y2="-29.878251" />
      <path d="M 1.80834,-11.302953 A 5.0,2.886751345948129 0.0 0,1 -2.128664,-11.302953" />
      <path d="M 27.264184,-25.999892 A 5.0,2.886751345948129 0.0 0,1 23.32718,-25.999892" />
      <line x1="-25.616006" y1="-8.649339" x2="2.668265" y2="7.680592" />
      <line x1="-24.201793" y1="-11.098829" x2="4.082478" y2="5.231102" />
    </g>
    <g fill="none" stroke="rgb(128,128,128)" stroke-width="0.25" id="hidden" stroke-dasharray="1.5875 0.79375">
      <line x1="-31.272861" y1="-13.548319" x2="-2.988589" y2="2.781613" />
      <line x1="-2.988589" y1="57.895132" x2="-2.988589" y2="2.781613" />
      <line x1="-2.988589" y1="2.781613" x2="53.579953" y2="-29.878251" />
      <path d="M 3.375372,-15.997809 A 5.0,2.886751345948129 0.0 0,1 4.839838,-13.956567" />
      <path d="M 4.839838,-13.956567 A 5.0,2.886751345948129 0.0 0,1 1.80834,-11.302953" />
      <path d="M -2.128664,-11.302953 A 5.0,2.886751345948129 0.0 0,1 -5.160162,-13.956567" />
      <path d="M -5.160162,-13.956567 A 5.0,2.886751345948129 0.0 0,1 3.375372,-15.997809" />
      <path d="M 28.831216,-30.694747 A 5.0,2.886751345948129 0.0 0,1 30.295682,-28.653506" />
      <path d="M 30.295682,-28.653506 A 5.0,2.886751345948129 0.0 0,1 27.264184,-25.999892" />
      <path d="M 23.32718,-25.999892 A 5.0,2.886751345948129 0.0 0,1 20.295682,-28.653506" />
      <path d="M 20.295682,-28.653506 A 5.0,2.886751345948129 0.0 0,1 28.831216,-30.694747" />
      <line x1="4.839838" y1="-13.956567" x2="4.839838" y2="-8.649339" />
      <line x1="-5.160162" y1="-13.956567" x2="-5.160162" y2="-8.649339" />
      <line x1="30.295682" y1="-28.653506" x2="30.295682" y2="-23.346278" />
      <line x1="20.295682" y1="-28.653506" x2="20.295682" y2="-23.346278" />
    </g>
  </g>
</svg>