<svg xmlns="http://www.w3.org/2000/svg" width="370" height="130" viewBox="0 0 370 130"><line x1="40" y1="38" x2="40" y2="82" stroke="#1f2328" stroke-width="2"/><line x1="54" y1="49" x2="54" y2="71" stroke="#1f2328" stroke-width="6"/><text x="47" y="105" font-family="Fira Sans, sans-serif" font-size="15" fill="#1f2328" text-anchor="middle">3,6 V</text><line x1="54" y1="60" x2="120" y2="60" stroke="#1f2328" stroke-width="2"/><line x1="120" y1="38" x2="120" y2="82" stroke="#1f2328" stroke-width="2"/><line x1="134" y1="49" x2="134" y2="71" stroke="#1f2328" stroke-width="6"/><text x="127" y="105" font-family="Fira Sans, sans-serif" font-size="15" fill="#1f2328" text-anchor="middle">3,6 V</text><line x1="134" y1="60" x2="200" y2="60" stroke="#1f2328" stroke-width="2"/><line x1="200" y1="38" x2="200" y2="82" stroke="#1f2328" stroke-width="2"/><line x1="214" y1="49" x2="214" y2="71" stroke="#1f2328" stroke-width="6"/><text x="207" y="105" font-family="Fira Sans, sans-serif" font-size="15" fill="#1f2328" text-anchor="middle">3,6 V</text><line x1="214" y1="60" x2="280" y2="60" stroke="#1f2328" stroke-width="2"/><line x1="280" y1="38" x2="280" y2="82" stroke="#1f2328" stroke-width="2"/><line x1="294" y1="49" x2="294" y2="71" stroke="#1f2328" stroke-width="6"/><text x="287" y="105" font-family="Fira Sans, sans-serif" font-size="15" fill="#1f2328" text-anchor="middle">3,6 V</text><line x1="10" y1="60" x2="40" y2="60" stroke="#1f2328" stroke-width="2"/><line x1="308" y1="60" x2="360" y2="60" stroke="#1f2328" stroke-width="2"/><text x="170.0" y="24" font-family="Fira Sans, sans-serif" font-size="16" font-weight="bold" fill="#1f2328" text-anchor="middle">4 Zellen in Serie: 4 × 3,6 V = 14,4 V</text></svg>