<svg xmlns="http://www.w3.org/2000/svg" viewBox="20 40 520 380" font-family="Helvetica, Arial, sans-serif">
  <defs>
    <marker id="axA" viewBox="0 0 10 10" refX="9" refY="5" markerWidth="6" markerHeight="6" orient="auto-start-reverse">
      <path d="M0,0 L10,5 L0,10 z" fill="#9ca3af"/>
    </marker>
  </defs>

  <!-- Achsen -->
  <line x1="70" y1="360" x2="450" y2="360" stroke="#9ca3af" stroke-width="2" marker-end="url(#axA)"/>
  <line x1="70" y1="360" x2="70" y2="55" stroke="#9ca3af" stroke-width="2" marker-end="url(#axA)"/>
  <text x="452" y="388" fill="#6b7280" font-size="24" font-style="italic">&#945; = R/R<tspan font-size="17" dy="6">i</tspan></text>

  <!-- Hilfslinien -->
  <line x1="140" y1="360" x2="140" y2="80" stroke="#9ca3af" stroke-width="1.5" stroke-dasharray="5 5"/>
  <line x1="70" y1="80" x2="140" y2="80" stroke="#9ca3af" stroke-width="1.5" stroke-dasharray="5 5"/>
  <line x1="70" y1="220" x2="140" y2="220" stroke="#9ca3af" stroke-width="1.5" stroke-dasharray="5 5"/>
  <text x="128" y="385" fill="#111827" font-size="20" font-weight="bold">1</text>
  <text x="48" y="87" fill="#6b7280" font-size="19">1</text>
  <text x="30" y="227" fill="#6b7280" font-size="19">0,5</text>

  <!-- P/Pmax -->
  <polyline points="70,360 88,181 105,111 123,86 140,80 175,91 210,111 245,132 280,150 315,167 350,181 385,193 420,204"
            fill="none" stroke="#1d4ed8" stroke-width="4"/>
  <text x="428" y="212" fill="#1d4ed8" font-size="22" font-style="italic">P/P<tspan font-size="16" dy="6">max</tspan></text>

  <!-- eta -->
  <polyline points="70,360 105,267 140,220 175,192 210,173 245,160 280,150 315,143 350,136 385,131 420,127"
            fill="none" stroke="#b91c1c" stroke-width="4"/>
  <text x="428" y="132" fill="#b91c1c" font-size="24" font-style="italic">&#951;</text>

  <!-- Markierungspunkte bei alpha = 1 -->
  <circle cx="140" cy="80" r="7" fill="#1d4ed8"/>
  <circle cx="140" cy="220" r="7" fill="#b91c1c"/>
</svg>
